<?xml version="1.0" encoding="UTF-8" standalone="no"?>
<svg
   width="170"
   zoomAndPan="magnify"
   viewBox="0 0 127.5 352.49998"
   height="470"
   preserveAspectRatio="xMidYMid"
   version="1.0"
   id="svg24"
   xmlns="http://www.w3.org/2000/svg"
   xmlns:svg="http://www.w3.org/2000/svg">
  <defs
     id="defs8">
    <clipPath
       id="ba53eb40c8">
      <path
         d="M 129.83203,23.03125 H 254.15625 V 361.01172 H 129.83203 Z m 0,0"
         clip-rule="nonzero"
         id="path2" />
    </clipPath>
    <clipPath
       id="a9b3f8d26c">
      <path
         d="M 129.83203,23.246094 H 244.84766 V 361.01172 H 129.83203 Z m 0,0"
         clip-rule="nonzero"
         id="path5" />
    </clipPath>
  </defs>
  <g
     clip-path="url(#ba53eb40c8)"
     id="g18"
     transform="matrix(1.0255443,0,0,1.0429717,-133.14849,-24.020943)">
    <path
       fill="#5ce1e6"
       d="M 210.26562,83.167969 129.66797,223.08594 h 50.2539 l -46.97656,137.92187 121.21094,-181.16015 -58.88281,0.10156 30.60937,-96.781251 h 13.9336 L 245,23.03125 l -0.14844,0.160156 0.0547,-0.160156 -0.17188,0.292969 -53.32812,59.84375 h 18.85937"
       fill-opacity="1"
       fill-rule="nonzero"
       id="path16" />
  </g>
  <g
     clip-path="url(#a9b3f8d26c)"
     id="g22"
     transform="matrix(1.0255443,0,0,1.0429717,-133.14849,-24.020943)">
    <path
       fill="#0097b2"
       d="m 132.94531,361.00781 76.15235,-160.71875 h -42.48047 l 78.11718,-176.964841 -53.32812,59.84375 h 18.85937 L 129.66797,223.08594 h 50.2539 l -46.97656,137.92187"
       fill-opacity="1"
       fill-rule="nonzero"
       id="path20" />
  </g>
</svg>
