<svg xmlns="http://www.w3.org/2000/svg" width="170" zoomAndPan="magnify" viewBox="0 0 127.5 352.5" height="470" preserveAspectRatio="xMidYMid" xmlns:v="https://vecta.io/nano"><defs><clipPath id="A"><path d="M129.832 23.031h124.324v337.98H129.832zm0 0" clip-rule="nonzero"/></clipPath><clipPath id="B"><path d="M129.832 23.246h115.016v337.766H129.832zm0 0" clip-rule="nonzero"/></clipPath></defs><g transform="matrix(1.025544 0 0 1.042972 -133.14849 -24.020943)"><g clip-path="url(#A)"><path fill="#5ce1e6" d="M210.266 83.168l-80.598 139.918h50.254l-46.977 137.922 121.211-181.16-58.883.102 30.609-96.781h13.934L245 23.031l-.148.16.055-.16-.172.293-53.328 59.844h18.859"/></g><g clip-path="url(#B)"><path fill="#0097b2" d="M132.945 361.008l76.152-160.719h-42.48l78.117-176.965-53.328 59.844h18.859l-80.598 139.918h50.254l-46.977 137.922"/></g></g></svg>